<?xml version="1.0" encoding="UTF-8" standalone="no"?>
<!DOCTYPE svg PUBLIC "-//W3C//DTD SVG 1.1//EN" "http://www.w3.org/Graphics/SVG/1.1/DTD/svg11.dtd">
<svg width="100%" height="100%" viewBox="0 0 139 216" version="1.1" xmlns="http://www.w3.org/2000/svg" xmlns:xlink="http://www.w3.org/1999/xlink" xml:space="preserve" xmlns:serif="http://www.serif.com/" style="fill-rule:evenodd;clip-rule:evenodd;stroke-linecap:round;stroke-linejoin:round;stroke-miterlimit:1.5;">
    <g id="ArtBoard1" transform="matrix(1,0,0,1,-37.6796,-175.99)">
        <rect x="37.68" y="175.99" width="138.153" height="215.683" style="fill:none;"/>
        <g transform="matrix(1,0,0,1,0.67957,0.990172)">
            <path d="M83.318,306.176C82.542,303.048 78.962,298.702 74.468,298.659C66.586,298.582 64.686,298.232 64.686,298.232L64.686,211.888L121.381,211.903C134.64,211.907 147.109,225.881 147.109,237.631L147.109,291.303C147.109,302.855 132.326,309.946 132.326,325.218L132.326,362.419L85.464,362.419C85.464,362.419 85.792,336.175 85.464,329.662C85.137,323.149 84.094,309.305 83.318,306.176Z" style="fill:none;stroke:rgb(255,0,175);stroke-width:1px;"/>
        </g>
    </g>
</svg>
